<?xml version="1.0" standalone="no"?>
<svg xmlns:xlink="http://www.w3.org/1999/xlink" id="wave" style="transform:rotate(0deg); transition: 0.3s" viewBox="0 0 1440 190" version="1.1" xmlns="http://www.w3.org/2000/svg"><defs><linearGradient id="sw-gradient-0" x1="0" x2="0" y1="1" y2="0"><stop stop-color="rgba(251, 188, 9, 1)" offset="0%"/><stop stop-color="rgba(251, 188, 9, 1)" offset="100%"/></linearGradient></defs><path style="transform:translate(0, 0px); opacity:1" fill="url(#sw-gradient-0)" d="M0,0L10,22.2C20,44,40,89,60,98.2C80,108,100,82,120,72.8C140,63,160,70,180,85.5C200,101,220,127,240,114C260,101,280,51,300,47.5C320,44,340,89,360,107.7C380,127,400,120,420,98.2C440,76,460,38,480,31.7C500,25,520,51,540,63.3C560,76,580,76,600,76C620,76,640,76,660,76C680,76,700,76,720,63.3C740,51,760,25,780,34.8C800,44,820,89,840,95C860,101,880,70,900,76C920,82,940,127,960,145.7C980,165,1000,158,1020,155.2C1040,152,1060,152,1080,136.2C1100,120,1120,89,1140,69.7C1160,51,1180,44,1200,44.3C1220,44,1240,51,1260,69.7C1280,89,1300,120,1320,129.8C1340,139,1360,127,1380,110.8C1400,95,1420,76,1430,66.5L1440,57L1440,190L1430,190C1420,190,1400,190,1380,190C1360,190,1340,190,1320,190C1300,190,1280,190,1260,190C1240,190,1220,190,1200,190C1180,190,1160,190,1140,190C1120,190,1100,190,1080,190C1060,190,1040,190,1020,190C1000,190,980,190,960,190C940,190,920,190,900,190C880,190,860,190,840,190C820,190,800,190,780,190C760,190,740,190,720,190C700,190,680,190,660,190C640,190,620,190,600,190C580,190,560,190,540,190C520,190,500,190,480,190C460,190,440,190,420,190C400,190,380,190,360,190C340,190,320,190,300,190C280,190,260,190,240,190C220,190,200,190,180,190C160,190,140,190,120,190C100,190,80,190,60,190C40,190,20,190,10,190L0,190Z"/><defs><linearGradient id="sw-gradient-1" x1="0" x2="0" y1="1" y2="0"><stop stop-color="rgba(243, 106, 62, 1)" offset="0%"/><stop stop-color="rgba(255, 179, 11, 1)" offset="100%"/></linearGradient></defs><path style="transform:translate(0, 50px); opacity:0.9" fill="url(#sw-gradient-1)" d="M0,152L10,152C20,152,40,152,60,152C80,152,100,152,120,148.8C140,146,160,139,180,114C200,89,220,44,240,28.5C260,13,280,25,300,31.7C320,38,340,38,360,41.2C380,44,400,51,420,72.8C440,95,460,133,480,152C500,171,520,171,540,171C560,171,580,171,600,148.8C620,127,640,82,660,60.2C680,38,700,38,720,41.2C740,44,760,51,780,63.3C800,76,820,95,840,107.7C860,120,880,127,900,120.3C920,114,940,95,960,98.2C980,101,1000,127,1020,120.3C1040,114,1060,76,1080,53.8C1100,32,1120,25,1140,28.5C1160,32,1180,44,1200,41.2C1220,38,1240,19,1260,25.3C1280,32,1300,63,1320,85.5C1340,108,1360,120,1380,123.5C1400,127,1420,120,1430,117.2L1440,114L1440,190L1430,190C1420,190,1400,190,1380,190C1360,190,1340,190,1320,190C1300,190,1280,190,1260,190C1240,190,1220,190,1200,190C1180,190,1160,190,1140,190C1120,190,1100,190,1080,190C1060,190,1040,190,1020,190C1000,190,980,190,960,190C940,190,920,190,900,190C880,190,860,190,840,190C820,190,800,190,780,190C760,190,740,190,720,190C700,190,680,190,660,190C640,190,620,190,600,190C580,190,560,190,540,190C520,190,500,190,480,190C460,190,440,190,420,190C400,190,380,190,360,190C340,190,320,190,300,190C280,190,260,190,240,190C220,190,200,190,180,190C160,190,140,190,120,190C100,190,80,190,60,190C40,190,20,190,10,190L0,190Z"/></svg>