<?xml version="1.0" standalone="no"?>
<svg xmlns:xlink="http://www.w3.org/1999/xlink" id="wave" style="transform:rotate(0deg); transition: 0.3s" viewBox="0 0 1440 290" version="1.1" xmlns="http://www.w3.org/2000/svg"><defs><linearGradient id="sw-gradient-0" x1="0" x2="0" y1="1" y2="0"><stop stop-color="rgba(251, 188, 9, 1)" offset="0%"/><stop stop-color="rgba(251, 188, 9, 1)" offset="100%"/></linearGradient></defs><path style="transform:translate(0, 0px); opacity:1" fill="url(#sw-gradient-0)" d="M0,203L80,183.7C160,164,320,126,480,96.7C640,68,800,48,960,48.3C1120,48,1280,68,1440,106.3C1600,145,1760,203,1920,207.8C2080,213,2240,164,2400,135.3C2560,106,2720,97,2880,106.3C3040,116,3200,145,3360,164.3C3520,184,3680,193,3840,174C4000,155,4160,106,4320,72.5C4480,39,4640,19,4800,14.5C4960,10,5120,19,5280,19.3C5440,19,5600,10,5760,43.5C5920,77,6080,155,6240,183.7C6400,213,6560,193,6720,188.5C6880,184,7040,193,7200,164.3C7360,135,7520,68,7680,33.8C7840,0,8000,0,8160,43.5C8320,87,8480,174,8640,188.5C8800,203,8960,145,9120,101.5C9280,58,9440,29,9600,38.7C9760,48,9920,97,10080,125.7C10240,155,10400,164,10560,159.5C10720,155,10880,135,11040,135.3C11200,135,11360,155,11440,164.3L11520,174L11520,290L11440,290C11360,290,11200,290,11040,290C10880,290,10720,290,10560,290C10400,290,10240,290,10080,290C9920,290,9760,290,9600,290C9440,290,9280,290,9120,290C8960,290,8800,290,8640,290C8480,290,8320,290,8160,290C8000,290,7840,290,7680,290C7520,290,7360,290,7200,290C7040,290,6880,290,6720,290C6560,290,6400,290,6240,290C6080,290,5920,290,5760,290C5600,290,5440,290,5280,290C5120,290,4960,290,4800,290C4640,290,4480,290,4320,290C4160,290,4000,290,3840,290C3680,290,3520,290,3360,290C3200,290,3040,290,2880,290C2720,290,2560,290,2400,290C2240,290,2080,290,1920,290C1760,290,1600,290,1440,290C1280,290,1120,290,960,290C800,290,640,290,480,290C320,290,160,290,80,290L0,290Z"/><defs><linearGradient id="sw-gradient-1" x1="0" x2="0" y1="1" y2="0"><stop stop-color="rgba(243, 106, 62, 1)" offset="0%"/><stop stop-color="rgba(251, 188, 9, 1)" offset="100%"/></linearGradient></defs><path style="transform:translate(0, 50px); opacity:0.9" fill="url(#sw-gradient-1)" d="M0,58L80,58C160,58,320,58,480,82.2C640,106,800,155,960,145C1120,135,1280,68,1440,62.8C1600,58,1760,116,1920,149.8C2080,184,2240,193,2400,174C2560,155,2720,106,2880,72.5C3040,39,3200,19,3360,24.2C3520,29,3680,58,3840,91.8C4000,126,4160,164,4320,188.5C4480,213,4640,222,4800,217.5C4960,213,5120,193,5280,198.2C5440,203,5600,232,5760,207.8C5920,184,6080,106,6240,91.8C6400,77,6560,126,6720,125.7C6880,126,7040,77,7200,82.2C7360,87,7520,145,7680,145C7840,145,8000,87,8160,53.2C8320,19,8480,10,8640,43.5C8800,77,8960,155,9120,174C9280,193,9440,155,9600,149.8C9760,145,9920,174,10080,169.2C10240,164,10400,126,10560,125.7C10720,126,10880,164,11040,149.8C11200,135,11360,68,11440,33.8L11520,0L11520,290L11440,290C11360,290,11200,290,11040,290C10880,290,10720,290,10560,290C10400,290,10240,290,10080,290C9920,290,9760,290,9600,290C9440,290,9280,290,9120,290C8960,290,8800,290,8640,290C8480,290,8320,290,8160,290C8000,290,7840,290,7680,290C7520,290,7360,290,7200,290C7040,290,6880,290,6720,290C6560,290,6400,290,6240,290C6080,290,5920,290,5760,290C5600,290,5440,290,5280,290C5120,290,4960,290,4800,290C4640,290,4480,290,4320,290C4160,290,4000,290,3840,290C3680,290,3520,290,3360,290C3200,290,3040,290,2880,290C2720,290,2560,290,2400,290C2240,290,2080,290,1920,290C1760,290,1600,290,1440,290C1280,290,1120,290,960,290C800,290,640,290,480,290C320,290,160,290,80,290L0,290Z"/></svg>